# Blender v2.93.5 OBJ File: ''
# www.blender.org
o Cube.001_Cube.002
v -5.200000 6.712379 5.656722
v -0.944555 10.570595 5.656721
v -5.200000 6.712379 -5.656722
v -0.944555 10.570595 -5.656721
v 5.200000 6.712379 5.656722
v 0.944555 10.570595 5.656721
v 5.200000 6.712379 -5.656722
v 0.944555 10.570595 -5.656721
v -4.300000 -1.300000 4.300000
v -4.300000 7.300000 4.300000
v -4.300000 -1.300000 -4.300000
v -4.300000 7.300000 -4.300000
v 4.300000 -1.300000 4.300000
v 4.300000 7.300000 4.300000
v 4.300000 -1.300000 -4.300000
v 4.300000 7.300000 -4.300000
v -1.492149 -1.209177 4.300000
v -1.492149 5.539289 4.300000
v 1.492149 5.539289 4.300000
v 1.492149 -1.209177 4.300000
v 4.300000 4.495337 -1.495337
v 4.300000 1.504663 -1.495337
v 4.300000 1.504663 1.495337
v 4.300000 4.495337 1.495337
v 3.974694 4.495337 -1.495337
v 3.974694 1.504663 -1.495337
v 3.974694 1.504663 1.495337
v 3.974694 4.495337 1.495337
v -1.492149 -1.209177 3.985314
v -1.492149 5.539289 3.985314
v 1.492149 5.539289 3.985314
v 1.492149 -1.209177 3.985314
v 2.947725 7.867204 -4.354280
v 2.947725 12.615618 -4.354280
v 3.050837 7.867204 -4.344124
v 3.050837 12.615618 -4.344124
v 3.149987 7.867204 -4.314047
v 3.149987 12.615618 -4.314047
v 3.241364 7.867204 -4.265205
v 3.241364 12.615618 -4.265205
v 3.321456 7.867204 -4.199475
v 3.321456 12.615618 -4.199475
v 3.387186 7.867204 -4.119383
v 3.387186 12.615618 -4.119383
v 3.436028 7.867204 -4.028006
v 3.436028 12.615618 -4.028006
v 3.466105 7.867204 -3.928856
v 3.466105 12.615618 -3.928856
v 3.476260 7.867204 -3.825744
v 3.476260 12.615618 -3.825744
v 3.466105 7.867204 -3.722632
v 3.466105 12.615618 -3.722632
v 3.436028 7.867204 -3.623482
v 3.436028 12.615618 -3.623482
v 3.387186 7.867204 -3.532106
v 3.387186 12.615618 -3.532106
v 3.321456 7.867204 -3.452013
v 3.321456 12.615618 -3.452013
v 3.241364 7.867204 -3.386283
v 3.241364 12.615618 -3.386283
v 3.149987 7.867204 -3.337441
v 3.149987 12.615618 -3.337441
v 3.050837 7.867204 -3.307364
v 3.050837 12.615618 -3.307364
v 2.947725 7.867204 -3.297209
v 2.947725 12.615618 -3.297209
v 2.844613 7.867204 -3.307364
v 2.844613 12.615618 -3.307364
v 2.745463 7.867204 -3.337441
v 2.745463 12.615618 -3.337441
v 2.654086 7.867204 -3.386283
v 2.654086 12.615618 -3.386283
v 2.573994 7.867204 -3.452013
v 2.573994 12.615618 -3.452013
v 2.508264 7.867204 -3.532106
v 2.508264 12.615618 -3.532106
v 2.459422 7.867204 -3.623482
v 2.459422 12.615618 -3.623482
v 2.429345 7.867204 -3.722632
v 2.429345 12.615618 -3.722632
v 2.419189 7.867204 -3.825744
v 2.419189 12.615618 -3.825744
v 2.429345 7.867204 -3.928856
v 2.429345 12.615618 -3.928856
v 2.459422 7.867204 -4.028006
v 2.459422 12.615618 -4.028006
v 2.508264 7.867204 -4.119383
v 2.508264 12.615618 -4.119383
v 2.573994 7.867204 -4.199475
v 2.573994 12.615618 -4.199475
v 2.654086 7.867204 -4.265205
v 2.654086 12.615618 -4.265205
v 2.745463 7.867204 -4.314047
v 2.745463 12.615618 -4.314047
v 2.844613 7.867204 -4.344124
v 2.844613 12.615618 -4.344124
vt 0.357128 0.017254
vt 0.680607 0.017254
vt 0.680607 0.340733
vt 0.357128 0.340733
vt 0.375000 0.250000
vt 0.625000 0.250000
vt 0.625000 0.500000
vt 0.375000 0.500000
vt 0.358531 0.655440
vt 0.679204 0.655440
vt 0.679204 0.976112
vt 0.358531 0.976112
vt 0.375000 0.750000
vt 0.625000 0.750000
vt 0.625000 1.000000
vt 0.375000 1.000000
vt 0.125000 0.500000
vt 0.125000 0.750000
vt 0.397330 0.384814
vt 0.647330 0.384814
vt 0.647330 0.634814
vt 0.397330 0.634814
vt 0.349074 0.000000
vt 0.349074 1.000000
vt 0.000000 1.000000
vt 0.000000 0.000000
vt -0.002734 0.998365
vt -0.002734 -0.012001
vt 0.346711 -0.012001
vt 0.346711 0.998365
vt 0.347195 0.000000
vt 0.347195 1.000000
vt 0.235042 0.673877
vt 0.235043 0.326124
vt 0.346319 -0.002857
vt 0.346319 0.997143
vt 0.283532 0.792411
vt 0.283532 0.007704
vt 0.994731 0.007199
vt 0.994731 1.007199
vt 0.691815 1.007199
vt 0.691815 0.007199
vt 0.625000 0.500000
vt 0.875000 0.500000
vt 0.875000 0.750000
vt 0.625000 0.750000
vt 0.388458 0.905439
vt 0.388458 0.661098
vt 0.414223 0.661098
vt 0.414223 0.905439
vt 0.062788 0.000000
vt 0.062788 1.000000
vt 0.000000 0.989439
vt 0.000001 0.204733
vt 0.125000 0.750000
vt 0.375000 0.750000
vt 0.375000 0.750000
vt 0.125000 0.750000
vt 0.334061 0.999169
vt 0.005825 0.999169
vt 0.117984 0.813529
vt 0.231885 0.813529
vt 0.299537 0.738572
vt 0.049537 0.738572
vt 0.049537 0.738572
vt 0.299537 0.738572
vt 0.003299 1.000000
vt 0.115451 0.673877
vt 0.003299 0.000000
vt 0.115452 0.326124
vt 0.694473 0.431433
vt 0.944473 0.431433
vt 0.944473 0.681433
vt 0.694473 0.681433
vt 0.049537 0.488572
vt 0.049537 0.488572
vt 0.299537 0.488572
vt 0.299537 0.488572
vt 0.717472 0.554187
vt 0.717472 0.182341
vt 0.881911 0.182341
vt 0.881911 0.554187
vt 0.632798 0.108565
vt 0.632798 0.661098
vt 0.607033 0.661098
vt 0.607033 0.108565
vt 0.362692 0.905439
vt 0.362692 0.661098
vt 0.388457 0.661098
vt 0.388457 0.905439
vt 0.632798 0.661098
vt 0.632798 0.108565
vt 0.658563 0.108565
vt 0.658563 0.661098
vt 0.837007 0.855047
vt 0.793400 0.846851
vt 0.793912 0.824532
vt 0.837519 0.832728
vt 0.794424 0.802213
vt 0.838031 0.810409
vt 0.794936 0.779894
vt 0.838543 0.788090
vt 0.795449 0.757575
vt 0.839056 0.765770
vt 0.795961 0.735255
vt 0.839568 0.743451
vt 0.796473 0.712936
vt 0.840080 0.721132
vt 0.796985 0.690617
vt 0.840592 0.698813
vt 0.797497 0.668298
vt 0.841105 0.676494
vt 0.798010 0.645979
vt 0.841617 0.654174
vt 0.798522 0.623660
vt 0.842129 0.631855
vt 0.799034 0.601340
vt 0.842641 0.609536
vt 0.799546 0.579021
vt 0.843153 0.587217
vt 0.800059 0.556702
vt 0.843666 0.564898
vt 0.800571 0.534383
vt 0.844178 0.542578
vt 0.801083 0.512064
vt 0.844690 0.520259
vt 0.801595 0.489744
vt 0.845202 0.497940
vt 0.802108 0.467425
vt 0.845715 0.475621
vt 0.802620 0.445106
vt 0.846227 0.453302
vt 0.803132 0.422787
vt 0.846739 0.430982
vt 0.803644 0.400467
vt 0.847251 0.408663
vt 0.804157 0.378148
vt 0.847764 0.386344
vt 0.804669 0.355829
vt 0.848276 0.364025
vt 0.805181 0.333510
vt 0.848788 0.341706
vt 0.805693 0.311191
vt 0.849300 0.319386
vt 0.806205 0.288871
vt 0.849813 0.297067
vt 0.806718 0.266552
vt 0.850325 0.274748
vt 0.807230 0.244233
vt 0.850837 0.252429
vt 0.807742 0.221914
vt 0.851349 0.230110
vt 0.808254 0.199595
vt 0.851861 0.207790
vt 0.808767 0.177275
vt 0.852374 0.185471
vt 0.849807 0.353067
vt 0.850172 0.319550
vt 0.851342 0.286185
vt 0.853271 0.254253
vt 0.855886 0.224982
vt 0.859085 0.199496
vt 0.862746 0.178775
vt 0.866728 0.163615
vt 0.870879 0.154599
vt 0.875038 0.152073
vt 0.879046 0.156134
vt 0.882748 0.166626
vt 0.886004 0.183147
vt 0.888686 0.205060
vt 0.890693 0.231524
vt 0.891947 0.261522
vt 0.892401 0.293902
vt 0.892035 0.327418
vt 0.890866 0.360783
vt 0.888936 0.392715
vt 0.886322 0.421986
vt 0.883123 0.447472
vt 0.879462 0.468193
vt 0.875479 0.483353
vt 0.871329 0.492370
vt 0.867170 0.494896
vt 0.863162 0.490835
vt 0.859459 0.480342
vt 0.856204 0.463822
vt 0.853521 0.441909
vt 0.851514 0.415444
vt 0.850260 0.385446
vt 0.809279 0.154956
vt 0.852886 0.163152
vt 0.809791 0.132637
vt 0.853398 0.140833
vt 0.841977 0.676657
vt 0.841611 0.710174
vt 0.842064 0.742553
vt 0.843319 0.772552
vt 0.845326 0.799016
vt 0.848008 0.820929
vt 0.851263 0.837450
vt 0.854966 0.847942
vt 0.858974 0.852003
vt 0.863133 0.849477
vt 0.867284 0.840460
vt 0.871266 0.825301
vt 0.874927 0.804579
vt 0.878126 0.779094
vt 0.880741 0.749822
vt 0.882670 0.717891
vt 0.883840 0.684525
vt 0.884205 0.651009
vt 0.883752 0.618630
vt 0.882497 0.588631
vt 0.880491 0.562167
vt 0.877808 0.540254
vt 0.874553 0.523733
vt 0.870850 0.513241
vt 0.866842 0.509180
vt 0.862683 0.511706
vt 0.858532 0.520722
vt 0.854550 0.535882
vt 0.850889 0.556603
vt 0.847690 0.582089
vt 0.845075 0.611361
vt 0.843146 0.643292
vn -0.6717 0.7408 0.0000
vn 0.0000 0.0000 -1.0000
vn 0.6717 0.7408 0.0000
vn 0.0000 0.0000 1.0000
vn 0.0000 -1.0000 0.0000
vn 0.0000 1.0000 0.0000
vn -1.0000 0.0000 0.0000
vn 1.0000 0.0000 0.0000
vn 0.0980 0.0000 -0.9952
vn 0.2903 0.0000 -0.9569
vn 0.4714 0.0000 -0.8819
vn 0.6344 0.0000 -0.7730
vn 0.7730 0.0000 -0.6344
vn 0.8819 0.0000 -0.4714
vn 0.9569 0.0000 -0.2903
vn 0.9952 0.0000 -0.0980
vn 0.9952 0.0000 0.0980
vn 0.9569 0.0000 0.2903
vn 0.8819 0.0000 0.4714
vn 0.7730 0.0000 0.6344
vn 0.6344 0.0000 0.7730
vn 0.4714 0.0000 0.8819
vn 0.2903 0.0000 0.9569
vn 0.0980 0.0000 0.9952
vn -0.0980 0.0000 0.9952
vn -0.2903 0.0000 0.9569
vn -0.4714 0.0000 0.8819
vn -0.6344 0.0000 0.7730
vn -0.7730 0.0000 0.6344
vn -0.8819 0.0000 0.4714
vn -0.9569 0.0000 0.2903
vn -0.9952 0.0000 0.0980
vn -0.9952 0.0000 -0.0980
vn -0.9569 0.0000 -0.2903
vn -0.8819 0.0000 -0.4714
vn -0.7730 0.0000 -0.6344
vn -0.6344 0.0000 -0.7730
vn -0.4714 0.0000 -0.8819
vn -0.2903 0.0000 -0.9569
vn -0.0980 0.0000 -0.9952
s off
f 1/1/1 2/2/1 4/3/1 3/4/1
f 3/5/2 4/6/2 8/7/2 7/8/2
f 7/9/3 8/10/3 6/11/3 5/12/3
f 5/13/4 6/14/4 2/15/4 1/16/4
f 3/17/5 7/8/5 5/13/5 1/18/5
f 8/19/6 4/20/6 2/21/6 6/22/6
f 9/23/7 10/24/7 12/25/7 11/26/7
f 11/27/2 12/28/2 16/29/2 15/30/2
f 14/31/8 13/32/8 23/33/8 24/34/8
f 13/35/4 14/36/4 19/37/4 20/38/4
f 11/39/5 15/40/5 13/41/5 9/42/5
f 16/43/6 12/44/6 10/45/6 14/46/6
f 19/47/5 18/48/5 30/49/5 31/50/5
f 10/51/4 9/52/4 17/53/4 18/54/4
f 9/55/4 13/56/4 20/57/4 17/58/4
f 14/59/4 10/60/4 18/61/4 19/62/4
f 24/63/2 23/64/2 27/65/2 28/66/2
f 13/32/8 15/67/8 22/68/8 23/33/8
f 16/69/8 14/31/8 24/34/8 21/70/8
f 15/67/8 16/69/8 21/70/8 22/68/8
f 26/71/8 25/72/8 28/73/8 27/74/8
f 23/64/6 22/75/6 26/76/6 27/65/6
f 21/77/5 24/63/5 28/66/5 25/78/5
f 22/75/4 21/77/4 25/78/4 26/76/4
f 30/79/4 29/80/4 32/81/4 31/82/4
f 20/83/7 19/84/7 31/85/7 32/86/7
f 17/87/6 20/88/6 32/89/6 29/90/6
f 18/91/8 17/92/8 29/93/8 30/94/8
f 33/95/9 34/96/9 36/97/9 35/98/9
f 35/98/10 36/97/10 38/99/10 37/100/10
f 37/100/11 38/99/11 40/101/11 39/102/11
f 39/102/12 40/101/12 42/103/12 41/104/12
f 41/104/13 42/103/13 44/105/13 43/106/13
f 43/106/14 44/105/14 46/107/14 45/108/14
f 45/108/15 46/107/15 48/109/15 47/110/15
f 47/110/16 48/109/16 50/111/16 49/112/16
f 49/112/17 50/111/17 52/113/17 51/114/17
f 51/114/18 52/113/18 54/115/18 53/116/18
f 53/116/19 54/115/19 56/117/19 55/118/19
f 55/118/20 56/117/20 58/119/20 57/120/20
f 57/120/21 58/119/21 60/121/21 59/122/21
f 59/122/22 60/121/22 62/123/22 61/124/22
f 61/124/23 62/123/23 64/125/23 63/126/23
f 63/126/24 64/125/24 66/127/24 65/128/24
f 65/128/25 66/127/25 68/129/25 67/130/25
f 67/130/26 68/129/26 70/131/26 69/132/26
f 69/132/27 70/131/27 72/133/27 71/134/27
f 71/134/28 72/133/28 74/135/28 73/136/28
f 73/136/29 74/135/29 76/137/29 75/138/29
f 75/138/30 76/137/30 78/139/30 77/140/30
f 77/140/31 78/139/31 80/141/31 79/142/31
f 79/142/32 80/141/32 82/143/32 81/144/32
f 81/144/33 82/143/33 84/145/33 83/146/33
f 83/146/34 84/145/34 86/147/34 85/148/34
f 85/148/35 86/147/35 88/149/35 87/150/35
f 87/150/36 88/149/36 90/151/36 89/152/36
f 89/152/37 90/151/37 92/153/37 91/154/37
f 91/154/38 92/153/38 94/155/38 93/156/38
f 36/157/6 34/158/6 96/159/6 94/160/6 92/161/6 90/162/6 88/163/6 86/164/6 84/165/6 82/166/6 80/167/6 78/168/6 76/169/6 74/170/6 72/171/6 70/172/6 68/173/6 66/174/6 64/175/6 62/176/6 60/177/6 58/178/6 56/179/6 54/180/6 52/181/6 50/182/6 48/183/6 46/184/6 44/185/6 42/186/6 40/187/6 38/188/6
f 93/156/39 94/155/39 96/189/39 95/190/39
f 95/190/40 96/189/40 34/191/40 33/192/40
f 33/193/5 35/194/5 37/195/5 39/196/5 41/197/5 43/198/5 45/199/5 47/200/5 49/201/5 51/202/5 53/203/5 55/204/5 57/205/5 59/206/5 61/207/5 63/208/5 65/209/5 67/210/5 69/211/5 71/212/5 73/213/5 75/214/5 77/215/5 79/216/5 81/217/5 83/218/5 85/219/5 87/220/5 89/221/5 91/222/5 93/223/5 95/224/5
